<?xml version="1.0" standalone="no"?>
<!DOCTYPE svg PUBLIC "-//W3C//DTD SVG 20010904//EN"
 "http://www.w3.org/TR/2001/REC-SVG-20010904/DTD/svg10.dtd">
<svg version="1.0" xmlns="http://www.w3.org/2000/svg"
 width="5030.000000pt" height="550.000000pt" viewBox="0 0 5030.000000 550.000000"
 preserveAspectRatio="xMidYMid meet">

<g transform="translate(0.000000,550.000000) scale(0.100000,-0.100000)"
fill="#000000" stroke="none">
<path d="M350 3000 l0 -1750 275 0 275 0 0 1750 0 1750 -275 0 -275 0 0 -1750z"/>
<path d="M2866 4723 c9 -16 104 -158 211 -318 131 -197 193 -299 193 -317 0
-52 -25 -58 -232 -58 l-188 0 0 -1390 0 -1390 275 0 275 0 2 1332 3 1332 895
-1332 895 -1331 303 -1 302 0 0 1750 0 1750 -275 0 -275 0 -2 -1292 -3 -1292
-865 1292 -865 1291 -334 1 -333 0 18 -27z"/>
<path d="M7750 4475 l0 -275 644 0 c354 0 651 -3 660 -6 10 -4 16 -18 16 -38
-1 -26 -31 -63 -200 -246 l-199 -215 -1 -1222 0 -1223 280 0 280 0 0 1475 0
1475 460 0 460 0 0 275 0 275 -1200 0 -1200 0 0 -275z"/>
<path d="M12100 3000 l0 -1750 1200 0 1200 0 0 275 0 275 -925 0 -925 0 0 460
0 460 788 2 787 3 0 275 0 275 -535 2 -535 2 -215 -199 c-183 -169 -220 -199
-246 -200 -20 0 -34 6 -38 16 -3 9 -6 306 -6 660 l0 644 925 0 925 0 0 275 0
275 -1200 0 -1200 0 0 -1750z"/>
<path d="M16450 4470 l0 -280 195 0 195 0 6 -25 c8 -33 6 -37 -210 -270 l-185
-200 -1 -1222 0 -1223 275 0 275 0 0 735 0 735 363 0 362 0 266 -733 265 -732
292 -3 c178 -1 292 1 292 7 0 5 -119 337 -265 736 -146 400 -265 733 -265 740
0 8 15 16 33 20 17 4 73 26 122 50 165 79 281 214 346 403 l34 97 3 385 c4
411 -1 476 -43 601 -64 186 -221 347 -402 410 -139 49 -148 49 -1079 49 l-874
0 0 -280z m1714 -280 c49 -11 85 -37 111 -81 19 -32 20 -55 23 -343 3 -267 1
-316 -13 -352 -17 -45 -79 -108 -121 -124 -15 -6 -257 -10 -595 -10 l-569 0 0
460 0 460 563 0 c309 0 580 -5 601 -10z"/>
<path d="M21370 4735 c-243 -49 -436 -210 -520 -431 -40 -108 -50 -192 -50
-425 0 -372 43 -494 245 -687 174 -168 350 -258 910 -467 316 -117 548 -227
608 -288 77 -77 82 -95 82 -317 0 -177 -2 -198 -20 -229 -26 -44 -62 -70 -111
-81 -51 -12 -977 -12 -1028 0 -49 11 -85 37 -111 81 -18 31 -20 55 -23 272
l-4 237 -275 0 -275 0 4 -282 c4 -257 7 -290 27 -358 37 -125 86 -205 181
-300 94 -95 174 -143 300 -181 74 -23 85 -23 645 -27 608 -4 662 -1 786 44
107 39 159 72 250 163 69 69 94 103 127 171 69 141 75 174 80 453 5 295 -5
362 -73 502 -32 67 -63 111 -120 172 -182 197 -364 294 -935 503 -408 149
-573 230 -649 317 -63 71 -74 121 -69 326 3 150 6 176 23 206 26 44 62 70 111
81 51 12 977 12 1028 0 49 -11 85 -37 111 -81 18 -31 20 -55 23 -271 l4 -238
274 0 274 0 0 249 c0 324 -20 431 -107 574 -99 164 -262 272 -471 313 -102 19
-1153 19 -1252 -1z"/>
<path d="M25150 4475 l0 -275 644 0 c354 0 651 -3 660 -6 10 -4 16 -18 16 -38
-1 -26 -31 -63 -200 -246 l-199 -215 -1 -1222 0 -1223 280 0 280 0 0 1475 0
1475 460 0 460 0 0 275 0 275 -1200 0 -1200 0 0 -275z"/>
<path d="M29500 3000 l0 -1750 1200 0 1200 0 0 275 0 275 -925 0 -925 0 0 460
0 460 788 2 787 3 0 275 0 275 -535 2 -535 2 -215 -199 c-183 -169 -220 -199
-246 -200 -20 0 -34 6 -38 16 -3 9 -6 306 -6 660 l0 644 925 0 925 0 0 275 0
275 -1200 0 -1200 0 0 -1750z"/>
<path d="M33850 3000 l0 -1750 1200 0 1200 0 0 275 0 275 -677 0 -678 -1 -200
-185 c-233 -216 -237 -218 -270 -210 l-25 6 0 1670 0 1670 -275 0 -275 0 0
-1750z"/>
<path d="M38200 3000 l0 -1750 1200 0 1200 0 0 275 0 275 -677 0 -678 -1 -200
-185 c-233 -216 -237 -218 -270 -210 l-25 6 0 1670 0 1670 -275 0 -275 0 0
-1750z"/>
<path d="M43232 3005 c-479 -960 -872 -1747 -872 -1750 0 -3 158 74 350 170
l350 175 524 1048 524 1047 525 -1050 525 -1050 346 -172 c190 -95 348 -173
351 -173 3 0 -389 788 -870 1750 -481 963 -876 1750 -878 1750 -1 0 -395 -785
-875 -1745z"/>
<path d="M47550 4470 l0 -280 195 0 195 0 6 -25 c8 -33 6 -37 -210 -270 l-185
-200 -1 -1222 0 -1223 275 0 275 0 0 735 0 735 363 0 362 0 266 -733 265 -732
292 -3 c178 -1 292 1 292 7 0 5 -119 337 -265 736 -146 400 -265 733 -265 740
0 8 15 16 33 20 17 4 73 26 122 50 165 79 281 214 346 403 l34 97 3 385 c4
411 -1 476 -43 601 -64 186 -221 347 -402 410 -139 49 -148 49 -1079 49 l-874
0 0 -280z m1714 -280 c49 -11 85 -37 111 -81 19 -32 20 -55 23 -343 3 -267 1
-316 -13 -352 -17 -45 -79 -108 -121 -124 -15 -6 -257 -10 -595 -10 l-569 0 0
460 0 460 563 0 c309 0 580 -5 601 -10z"/>
</g>
</svg>
